<svg xmlns="http://www.w3.org/2000/svg" viewBox="0 0 512 335"><title>grad-cap-icon</title><path d="M66,336H46c-15.66-8-18.48-14-14.8-31.66,2.48-11.9,5.14-23.76,7.36-35.7a8.85,8.85,0,0,0-1.81-6.49c-10-11.66-9.37-27.16,1.52-37.8a9.24,9.24,0,0,0,2.76-5.8c.18-27.31.08-54.63.19-81.94,0-2.95-.85-4.47-3.67-5.5-8-2.93-15.75-6.35-23.74-9.21C8.06,119.83,3.55,116.66,1,111v-7c2.4-5.76,6.85-8.91,12.62-11.13C35.85,84.32,57.89,75.3,80.1,66.69Q165,33.74,250,1h14c6.63,2.07,13.42,3.73,19.86,6.27Q391.68,49.83,499.44,92.54c6,2.37,11.08,5.21,13.56,11.46v7c-2.56,5.66-7.14,8.66-12.82,10.9q-107.79,42.5-215.42,85.39c-18.87,7.56-36.88,7.55-55.71-.07C178.12,186.62,127,166.61,75.88,146.38c-1.43-.57-2.92-1-4.85-1.63,0,25.45,0,50.1.11,74.75,0,1.5,1.27,3.31,2.47,4.42,11.33,10.54,12.31,26.62,1.93,38A7,7,0,0,0,73.7,269c3,13.66,5.88,27.34,8.47,41.08a26.23,26.23,0,0,1-.24,10.32C80,328.85,73.66,333.18,66,336Z" transform="translate(-1 -1)"/><path d="M97.81,177.65c16.54,6.54,32.16,12.7,47.77,18.89,26,10.31,52,20.56,78,31,22.8,9.15,45.32,8.7,68.07-.47,39.54-15.94,79.24-31.47,118.87-47.17,1.66-.66,3.35-1.26,5-1.87.29.57.43.71.43.86,0,28.31.63,56.65-.3,84.93-.46,13.87-10.17,23.58-20.64,31.74-17.69,13.78-38.22,21.68-59.73,26.82-57.39,13.72-114.6,13.13-171.2-4.29-20.2-6.22-39.2-15.09-54.09-30.85-8.12-8.6-12.34-18.65-12.21-30.71.26-24.49.08-49,.08-73.49C97.81,181.55,97.81,180.07,97.81,177.65Z" transform="translate(-1 -1)"/></svg>