<svg xmlns="http://www.w3.org/2000/svg" viewBox="0 0 999 1000"><title>Artboard 1</title><path d="M43.7,305.14c4.6-15.21,7.15-31.45,14.16-45.45,25.45-50.84,66.59-79.9,124.08-84.13,4.14-.3,8.31-.37,12.47-.38q174.23,0,348.46,0c17.3,0,22.33,5,22.44,22.24.06,8.61.32,17.25-.18,25.84-.66,11.35-6,16.4-17.43,17.28-3,.23-5.94.08-8.91.08-114.37,0-228.74.19-343.11-.13-29.05-.08-52.58,10-70.45,33-11.8,15.22-16.26,32.67-16.26,51.6q0,208.54.1,417.08c.07,41.69,23,71.89,61.56,82.22a86.25,86.25,0,0,0,22,2.75q209.43.24,418.87,0c40.74-.07,71.49-23.88,81.57-62.55,2.14-8.2,2.59-17,2.63-25.57.23-49.61.11-99.22.12-148.83,0-19.73,4.07-23.73,24.15-23.74,8,0,16.06-.23,24.06.18,11,.57,16.52,5.94,16.53,16.79.06,58.52,1.17,117.08-.63,175.55-1.92,62.4-57.41,121.92-119.18,130.85a225.61,225.61,0,0,1-31.92,2.35q-206.76.23-413.52.13c-64.86,0-111-30-139-87.6-6.48-13.3-8.5-28.78-12.57-43.26Q43.7,533.32,43.7,305.14Z"/><path d="M730.37,256.28c-3.79-4-6-6.33-8.24-8.61Q682.44,208,642.7,168.28c-10.85-10.79-16-23.11-9.61-37.85,6.19-14.4,17.95-20.37,33.48-20.35,84.67.12,169.34,0,254,.12,22.85,0,35.8,13.35,35.81,36.17q.08,126.56,0,253.11c0,16.91-7.13,28.95-20.76,34.06-14.41,5.41-26.58,1.2-37.2-9.51-26.57-26.79-53.35-53.36-79.95-80.12-2.29-2.3-3.85-5.31-6.94-9.66-3.83,4.85-5.79,7.91-8.29,10.42Q644.2,503.86,485.05,663c-14.54,14.54-20.59,14.49-35.35-.24q-23.65-23.62-47.28-47.25c-13.11-13.13-13.15-19.79-.07-32.88Q561.46,423.44,720.63,264.36C723.35,261.64,726.56,259.42,730.37,256.28Z"/></svg>