<svg xmlns="http://www.w3.org/2000/svg" viewBox="0 0 1750.34 456.18"><defs><style>.a{fill:#fff;}</style></defs><title>formula</title><path class="a" d="M1079,234.89H382.57c-2.62,0-6,1.14-5.36-3.84.27-2.07.76-3.11,2.92-3,1,.06,2,0,3,0H1773.94c1,0,2,0,3,0,2.19,0,4.38-.93,4.45,3.21s-2,3.61-4.51,3.61H1079Z" transform="translate(-31.05 -30.03)"/><path class="a" d="M674.91,388.86q-136,0-272,0c-2.24,0-5.14,1.14-5-3.24.09-3,.57-3.7,3.91-3.74,26.28-.35,52.57.16,78.85,0,22.77-.15,45.56.11,68.34.14q129.25.15,258.49,0,70.44,0,140.88-.14c2.63,0,3.56.44,3.54,3.14s-.41,4.29-3.52,3.87a22.86,22.86,0,0,0-3,0Z" transform="translate(-31.05 -30.03)"/><path class="a" d="M807.85,132.75c2.73-10.68,5.54-21.44,8.24-32.24q5.1-20.39,10.06-40.82c2.17-8.94,0-11.94-9-12.67-.5,0-1,0-1.5,0-1.81-.06-3.53-.55-3.28-2.73.2-1.78,1.39-2.81,3.5-2.69,11,.59,21.94,1,32.9-.17,2-.21,3.57.6,3.66,2.43s-1.28,2.93-3.22,3.15-3.61.58-5.42.74c-7,.63-11.09,4.68-12.77,11.24q-7.6,29.72-15,59.49-4.63,18.47-9.07,37c-.35,1.48-1,2.78-2.26,2.95-2.27.3-2.85-1.79-3.55-3.43q-11-26-22-51.95Q768.94,78.9,758.7,54.76c-.35-.82-.4-2-2.13-2.4-2.56,10.11-5.15,20.23-7.67,30.37-4.82,19.4-9.56,38.81-14.39,58.2-2,8-.08,11,8.06,12.1a23.48,23.48,0,0,0,3,.11c1.52,0,2.8.57,2.74,2.19-.06,1.46-.57,2.86-2.65,2.85-11.66-.06-23.32,0-35-.06-1.17,0-2.46-.17-2.43-1.81a3.13,3.13,0,0,1,2.73-3.1,51.54,51.54,0,0,1,5.87-.82c7.69-.7,11.44-5.43,13.14-12.2,7.66-30.57,15.19-61.17,22.8-91.86A37.7,37.7,0,0,0,740.39,47c-1.83,0-4.11,0-4.12-2.47,0-2.64,2.16-2.84,4.31-2.82,8,.06,16,.24,24,0,3.36-.12,4.36,1.83,5.34,4.14q11.52,27.07,23,54.17c4.42,10.49,8.77,21,13.15,31.52A1.72,1.72,0,0,0,807.85,132.75Z" transform="translate(-31.05 -30.03)"/><path class="a" d="M64.81,212.77c5.38-5.72,10.37-10.83,17.54-12.84a31,31,0,0,1,17.16-.18c8.94,2.62,12.94,11.56,11,21.79-2.34,12.23-6.69,23.81-11,35.4a37.88,37.88,0,0,0-2.15,9.1c-.56,5.05,2.74,7.33,7.56,5.6,4.47-1.61,7.17-5,9.44-9a62,62,0,0,0,5-12.32c.42-1.32.94-3.16,3.08-2.17,1.63.75,1.16,1.93.69,3.33-3,9.21-6.42,18.11-15.84,22.93a13.08,13.08,0,0,1-14.09-1c-4.62-3.15-6.37-7.91-5.65-13.45s3.46-10.65,5.2-16c3.28-10,7.31-19.92,7.37-30.7.05-9.11-5.68-13.21-14.45-10.63-15.77,4.65-22.51,16.54-25.81,31.52-2.55,11.59-5.67,23.06-8.53,34.58a13,13,0,0,1-2.22,4.92,5.32,5.32,0,0,1-6.62,1.83c-2.35-1-3.37-3.12-2.57-6.18,3.65-14,7-28.17,10.5-42.26,1.1-4.49,2.27-9,3.17-13.49a18.39,18.39,0,0,0,.18-5.93c-.34-2.52-1.34-4.81-4.26-5.48s-4.9.74-6.55,2.64c-4,4.65-5.19,10.62-7,16.28-.34,1.1-.59,2.22-.89,3.34s-.95,2.34-2.33,2.08c-1.63-.31-2-1.78-1.57-3.12,1.9-5.94,3.14-12.06,6.33-17.62,3.68-6.41,9.11-7.64,15.66-6.66,5.19.77,9.39,5.36,10.73,11.55A18.45,18.45,0,0,0,64.81,212.77Z" transform="translate(-31.05 -30.03)"/><path class="a" d="M494.68,272.21c-5.45,21.47-10.65,41.69-15.69,62-1.14,4.6.71,6.58,5.79,7,1.79.13,4.06-.32,4.1,2.37s-2.23,2.35-4,2.35q-10.71,0-21.41,0c-1.47,0-3.23.28-3.34-2s1.43-2.58,3.29-2.77c8.94-.89,9.9-1.76,12.15-10.68,4.89-19.35,9.63-38.74,14.77-58,.9-3.37-.34-3.64-2.79-3.81-2.13-.15-4.32.57-6.41-.44-.88-.42-2-.53-1.89-1.91a2.05,2.05,0,0,1,2-1.91c6.66-.13,13.32-.23,20-.06,1.78,0,2.39,2,3.12,3.52q13.7,28,27.41,55.93c.57,1.17.61,3,2.14,3,1.87-.11,1.05-2.08,1.35-3.25,4-15.83,8-31.67,12-47.52,1.21-4.88-.07-6.56-5.1-7.26-.82-.11-1.79.17-2.44-.19-.9-.5-2.49-.36-2.43-2s1.37-2.23,2.72-2.24c3.29,0,6.59.23,9.88.22,4.3,0,8.59-.2,12.89-.26,1.6,0,3.91-.37,3.86,1.87,0,1.94-1.94,2.72-4.06,2.73a14.44,14.44,0,0,0-5.36.85c-3.27,1.35-5,4.23-5.84,7.53Q543.05,309.58,535,342c-.39,1.57,0,3.56-2.29,3.77-2.09.19-2.73-1.6-3.45-3.07q-16.51-33.83-33-67.66C496,274.51,495.64,274,494.68,272.21Z" transform="translate(-31.05 -30.03)"/><path class="a" d="M614.92,480.5c1,.58,1.44,1,1.87,1,9.46.31,18.9.9,28.36-.32,12.48-1.61,19.62-9.17,23.61-20.46.66-1.86,1.13-3.79,1.91-5.6.42-1,1-2.42,2.51-1.82,1.11.46,1.54,1.5,1.09,2.9-3,9.25-5.93,18.53-8.86,27.8-.54,1.71-1.7,2.14-3.4,2.14q-29.47-.05-58.95,0c-1,0-2.17.28-2.65-.8-.65-1.47.45-2.53,1.34-3.48,5.59-5.93,11.17-11.87,16.85-17.72Q643.3,438.76,668,413.39c1.11-1.15,2.62-2.07,2.9-4.55-10.95.37-21.86-1.11-32.54,1.46-8.53,2-13.69,8.22-17,16.1a30.82,30.82,0,0,0-1.44,3.68c-.46,1.7-1.56,2.18-3,1.6s-1-2-.7-3c1.55-4.87,3.16-9.71,4.78-14.55,3-9.13,3.06-9.11,12.83-9.1,15.82,0,31.65,0,47.47.06,1.47,0,3.56-1.3,4.38.91.72,1.92-1.17,2.95-2.27,4.08q-28.55,29.69-57.16,59.33C622.78,473.05,619.76,477.25,614.92,480.5Z" transform="translate(-31.05 -30.03)"/><path class="a" d="M1384.61,368.5c0,15.83.11,31.66-.08,47.49,0,4,1.73,6,5.24,6.55a90.37,90.37,0,0,0,12.36,1c1.88,0,3.67-.91,3.78,2.12s-1.67,3.17-3.89,3.15q-20-.19-39.93-.31c-2.64,0-5.29.29-7.93.28-2.07,0-4.16-.3-3.93-3.18s2-2.52,4-2a7.16,7.16,0,0,0,2.46.06c17.7-1.8,15.37-1.8,15.4-17.68,0-24.83-.08-49.65.06-74.48,0-4.16-.64-5.45-4.85-3.35-4.67,2.33-10,2.21-15.05,2.73-2.49.25-3.25-1-3.08-3.26s1.46-2.37,3.44-2.26c9.67.56,18.14-2.74,25.73-8.53,1.36-1,2.31-3.34,4.44-2.2,1.75.93,1.8,3.18,1.84,4.89.16,6.66,0,13.33,0,20q0,14.5,0,29Z" transform="translate(-31.05 -30.03)"/><path class="a" d="M1060.84,98.1c0,15.83.09,31.66-.06,47.48,0,4.25,1.29,6.19,5.77,6.85a103.68,103.68,0,0,0,11.9.69c2,.07,3.54,0,3.57,2.78s-1.73,2.25-3.32,2.25q-24.48,0-49,0c-1.48,0-3.38.74-3.18-2.27.16-2.38,1.2-2.67,3.11-2.74,4.13-.16,8.24,0,12.41-.69,4.59-.81,6.12-3.07,6.1-7.4-.08-18.49,0-37,0-55.48,0-9.66-.05-19.33,0-29,0-2.87-.07-4.6-3.79-2.81-4.66,2.24-9.94,2.23-15,3.06-2.09.34-3.59.19-3.75-2.91s1.47-2.78,3.28-2.73a37.26,37.26,0,0,0,25.68-8.69c1.18-1,2.38-3,4.19-2.08,2,1,2,3.22,2.05,5.22q0,16.74,0,33.48Q1060.84,90.6,1060.84,98.1Z" transform="translate(-31.05 -30.03)"/><path class="a" d="M1440,113.86c.41,28.67-6.36,53.2-23.38,74.4A56.51,56.51,0,0,1,1404.46,200c-1,.7-2,1.45-3.08.5-1.27-1.15-.11-2.06.69-2.88,20.56-21.09,27.54-47.2,28.24-75.74.52-21.43-1.49-42.38-10.24-62.26a85,85,0,0,0-17-24.91c-1.06-1.09-3.33-2.14-1.83-3.93s2.86.2,4.07,1.19c16.84,13.75,26.41,31.89,31.51,52.65A106.34,106.34,0,0,1,1440,113.86Z" transform="translate(-31.05 -30.03)"/><path class="a" d="M1763.94,385.6c.15,26.56-6.26,51-23,72.25a66.52,66.52,0,0,1-12.87,12.43c-1.06.78-2.25,1-3.16.11-1.33-1.34.32-2.08,1-2.75,16.44-16.34,24.2-36.78,27-59.19,2.84-22.74,2.05-45.42-4.9-67.5-4.17-13.24-10.38-25.4-20.55-35.19a15.71,15.71,0,0,1-2.1-2.13c-.62-.89-1.53-1.93-.31-3,1-.94,1.78,0,2.58.5a58.73,58.73,0,0,1,12.95,12.36c12.67,15.68,19.63,33.8,22.32,53.72A147.88,147.88,0,0,1,1763.94,385.6Z" transform="translate(-31.05 -30.03)"/><path class="a" d="M1285,387.44c-.57-25.24,4.71-47.36,18.05-67.26,4.73-7.06,10.13-13.52,17-18.61,1-.77,2-2.24,3.36-1s.08,2.47-.82,3.39c-14.88,15.17-22.86,33.69-26.21,54.38a176.75,176.75,0,0,0-.76,48.58c1.87,16.26,6.28,31.62,15,45.6A78,78,0,0,0,1321,465.8c1.24,1.27,4.24,2.53,2.42,4.59-1.61,1.83-3.57-.38-5-1.67-14.73-12.91-24.35-28.94-29.35-47.85C1286,409.39,1284.45,397.79,1285,387.44Z" transform="translate(-31.05 -30.03)"/><path class="a" d="M960.74,118.15c-.19-27.37,5.41-50.46,20.21-70.88A71,71,0,0,1,996.39,31.2c1-.72,2-1.69,3-.71,1.35,1.3.08,2.38-.85,3.32-19.28,19.66-26.38,44.09-28,70.78-1.51,24.83,1.31,48.86,12.39,71.47a75.65,75.65,0,0,0,14.12,19.74c1.22,1.24,4.25,2.55,2.25,4.61-1.58,1.63-3.62-.61-5-1.86-15.69-13.8-25.41-31.15-30.16-51.37C961.69,136.81,960.26,126.31,960.74,118.15Z" transform="translate(-31.05 -30.03)"/><path class="a" d="M1073.67,356.59c0-7.5.07-15,0-22.49,0-2.77.63-5.57,3.49-5.51,2.69.05,2.91,3,2.9,5.46-.06,14.5.14,29-.12,43.49-.08,4.28,1.12,5.11,5.3,5,14.15-.33,28.32-.07,42.48-.1,2.57,0,5.72-.24,5.94,2.9.28,3.89-3.36,4.05-6.12,4.07-14,.09-28,.29-42-.17-5-.16-5.7,1.59-5.63,5.9.24,14,.11,28,.08,42,0,2.39.68,5.63-3.09,5.59-3.52,0-3.19-3-3.19-5.55,0-14.66-.12-29.33.09-44,0-3.19-.73-3.93-3.84-3.89-14.16.17-28.32.09-42.49.07-1.15,0-2.3-.12-3.45-.22-2.46-.21-4.31-1.16-3.86-4s2.95-2.71,5-2.72c8.83,0,17.66.06,26.49.07,6.33,0,12.66-.15,19,0,2.39.07,3.22-.39,3.15-3-.19-7.65-.07-15.31-.07-23Z" transform="translate(-31.05 -30.03)"/><path class="a" d="M719.89,303.39c0,10.66.11,21.32-.06,32-.07,4.08,1.64,5.81,5.57,5.78,2.48,0,5,.19,7.45.08,2-.09,3.9-.26,3.88,2.42,0,2.43-2,2.23-3.63,2.21-7.8-.1-15.6-.25-23.41-.28-4.31,0-8.62.2-12.93.27-1.48,0-3.24.18-3.16-2,.07-1.89,1-2.73,3.18-2.7,15.75.26,13.26.48,13.35-13.83.1-16,0-32,0-48,0-3,.17-4.71-3.9-2.81-3.17,1.48-7.13,1.24-10.71,1.89-1.84.33-2.33-.47-2.49-2.09-.18-1.82.63-2.24,2.28-2.26A32.59,32.59,0,0,0,716,266.94c3.11-2.45,3.9.26,3.9,3q0,16.74,0,33.47Z" transform="translate(-31.05 -30.03)"/><path class="a" d="M411.9,315.57c.43-21.55,6.84-40.75,23.68-55.52a2.31,2.31,0,0,1,.36-.34c2.11-1.13,4-5.35,6.33-2.65,2,2.29-2.25,3.23-3.66,4.74a67.13,67.13,0,0,0-17.51,36.53c-2.48,16.52-2.12,33,3.77,49a60.34,60.34,0,0,0,15.54,23.9c1,.9,3.62,1.72,1.8,3.77s-3-.41-4.07-1.25c-14.51-11.38-22.29-26.55-25.17-44.58C412.27,324.67,412.24,320.22,411.9,315.57Z" transform="translate(-31.05 -30.03)"/><path class="a" d="M787.12,311.93c-.16,25.66-7,44.57-23.27,59.48-1.91,1.75-4.68,5.51-6.57,3.49-2.55-2.74,2.09-4.27,3.74-5.92,9.78-9.8,14.71-22,16.83-35.21,2.84-17.69,2.23-35.36-4.75-52.3a68,68,0,0,0-14.73-21.59c-.79-.81-3-1.08-1.75-2.88s2.7-.35,3.78.51a67,67,0,0,1,23.49,34.81C786.12,300,787.29,307.84,787.12,311.93Z" transform="translate(-31.05 -30.03)"/><path class="a" d="M243.18,251.17q-25.22,0-50.44,0c-1.16,0-2.31-.15-3.47-.21-1.69-.09-2.87-.82-3.1-2.59a3.35,3.35,0,0,1,2.57-3.78,12.92,12.92,0,0,1,3.93-.33q50.44,0,100.89,0a11,11,0,0,1,3.93.32A3.41,3.41,0,0,1,299.9,248c-.08,1.88-1.19,2.63-2.81,2.89a22.65,22.65,0,0,1-3.46.32q-25.22,0-50.44,0Z" transform="translate(-31.05 -30.03)"/><path class="a" d="M242.73,217.89q-25.72,0-51.43,0c-2.35,0-5.1.33-5.07-3s2.62-3.58,5.34-3.58q51.43.07,102.87,0c2.68,0,5.37.05,5.36,3.5s-2.75,3.12-5.13,3.11Q268.69,217.88,242.73,217.89Z" transform="translate(-31.05 -30.03)"/><path class="a" d="M1200,112.17q22.73,0,45.45,0a19.84,19.84,0,0,1,4.42.34,3.3,3.3,0,0,1,2.73,3.62,3.2,3.2,0,0,1-3,2.78c-1.82.18-3.65.36-5.47.36q-43.71,0-87.41,0a47.82,47.82,0,0,1-5.47-.38c-1.82-.21-3.06-1-3.11-3.16s1.37-3,3-3.41a15.57,15.57,0,0,1,4-.16Z" transform="translate(-31.05 -30.03)"/><path class="a" d="M1524.39,382.44c15.48,0,31,0,46.44,0,2.21,0,4.89-.48,5.17,3s-2.34,3.48-4.62,3.78a26.23,26.23,0,0,1-3.48.12q-43.7,0-87.4,0a54.19,54.19,0,0,1-6-.45c-1.79-.2-2.46-1.39-2.54-3.1a2.6,2.6,0,0,1,2.52-3.05,25.42,25.42,0,0,1,3.42-.29q23.22,0,46.45,0Z" transform="translate(-31.05 -30.03)"/><path class="a" d="M901,302c5.59-4.92,11.23-9.8,16.76-14.79,3.84-3.47,7.36-7.22,8.33-12.61,1.09-6.06-1-11-6.12-14.13-6-3.72-12.32-3.26-18.35.32-2.49,1.48-5.82,2.86-.83,5.77,2.11,1.23,2,3.76.82,5.8a4.21,4.21,0,0,1-5,2.1,4.68,4.68,0,0,1-3.61-4.76c-.25-5.88,5-12.49,12.62-14.06,6.81-1.4,13.92-1.41,20.39,2.05,10.58,5.65,12.22,17.18,3.5,25.54-7.19,6.9-15.89,11.85-23.8,17.83-.61.46-1.25.89-2.59,1.84a126.82,126.82,0,0,0,22.82.47c3.6-.26,5-1.89,5.27-5.22.1-1.54.45-3.38,2.47-2.92,2.32.53.93,2.22.67,3.59-.59,3.09-1,6.21-1.51,9.31-.21,1.15.36,2.89-1.77,2.92-1.8-2-.73-4.25-.35-6-8.69,2.12-17.33,1.44-26,.17C902.79,305,901.09,304.35,901,302Z" transform="translate(-31.05 -30.03)"/><path class="a" d="M715,438.85c4.34-4.06,8.76-8,13-12.21a18.52,18.52,0,0,0,6-13.23c.08-5.88-4-10.51-10.68-12.68-5.46-1.76-13.55.28-16.61,3.88-1.4,1.65-.52,2.35.66,3.07,2.74,1.67,3.51,3.93,1.79,6.63-1.21,1.89-3,3.1-5.46,2-3.07-1.39-3.88-3.61-3.09-6.89,1.49-6.18,5.77-9.55,11.38-11.23,9-2.7,21.56-1.22,27.28,6.44a15.27,15.27,0,0,1-.89,19.5c-5.5,6.12-12.94,9.69-19.29,14.7-1.48,1.17-2.6,3.13-4.84,3.25C711.2,440.2,714.86,440,715,438.85Z" transform="translate(-31.05 -30.03)"/><path class="a" d="M626.47,313c12.14,0,24.28.08,36.42-.08,2.08,0,3.33.63,3.67,2.39.44,2.27-1.33,3.17-3.19,3.56a17.31,17.31,0,0,1-3.48.11H591c-2.42,0-5.26-.2-5.28-3.14,0-3.25,3-2.75,5.29-2.75q17.71,0,35.42,0Z" transform="translate(-31.05 -30.03)"/><path class="a" d="M715,438.85c.19,1.18-2.28,1.72-.79,3.22-.49,1.45-2.64,1.3-3.07,3.67,8.36-.11,16.56.48,24.7-.69,2.89-.41,2.38-3.59,3.22-5.59.42-1,0-2.56,1.76-2.36s1.12,1.69,1.15,2.73a9.16,9.16,0,0,1-.22,2c-2.35,12-2.36,12-14.9,12H704.48c-1.66,0-3.61,0-4.18-1.76-.52-1.62,1.14-2.4,2.34-3.35C706.75,445.45,710.21,441.35,715,438.85Z" transform="translate(-31.05 -30.03)"/><path class="a" d="M901,302c2,3.13,5.52,2.24,8.18,2.39,7.45.4,15.09,2.06,22.52-1.28,1.23,2.63-1.34,5.19-.67,7.93-11.89.16-23.79.31-35.68.51a2.85,2.85,0,0,1-2.58-1.16c-.72-1.09.29-1.86,1-2.45C896.1,305.9,898.56,304,901,302Z" transform="translate(-31.05 -30.03)"/><path class="a" d="M1387.84,102c-2.19-10.07-10-20.27-24.08-18.92-7,.68-12.22,4.68-16.84,9.49-2.43,2.52-3.37,2.59-4.72-.92-2.07-5.37-6.4-8-12.18-8.63-6.67-.78-10.57,2.58-13.45,7.95a42.63,42.63,0,0,0-4.63,12.47c-.44,2.39-3.79,6,0,7s3.1-3.92,3.76-6.23c1.42-5,2.87-9.87,5.8-14.12,1.88-2.72,4.58-4.51,8.13-3.26,3.26,1.15,3.56,4,3.47,6.94a30.94,30.94,0,0,1-.46,6.44q-9.82,39.92-19.8,79.8c-1.06,4.27-3.62,6.5-8.12,6.3a12.14,12.14,0,0,0-3,0,2.87,2.87,0,0,0-2.12,3,2.33,2.33,0,0,0,2.77,2.21,149.64,149.64,0,0,1,30.26,0,2.8,2.8,0,0,0,3.27-2.93c0-2.43-1.63-2.48-3.43-2.44-1.66,0-3.32,0-5-.15-3-.19-4.82-.94-3.78-4.82,2.68-10,4.94-20.19,7.49-30.79.94.47,1.47.58,1.74.9,8.22,9.85,15.16,11.24,26.89,5.62a45.59,45.59,0,0,0,18.49-16.14C1386.2,129.15,1391,116.48,1387.84,102ZM1362,148a24.88,24.88,0,0,1-6.67,5.88c-5.49,3.51-10.73,3.71-14.69.34-4.9-4.18-7.92-9.18-6.14-16.13,2.65-10.37,4.77-20.88,7.6-31.2S1352.6,90.22,1362.5,87c6.17-2,11.82,2,13.38,8.59a74.1,74.1,0,0,1,.95,7.57C1374.57,118.57,1372.25,134.55,1362,148Z" transform="translate(-31.05 -30.03)"/><path class="a" d="M938.85,97.28c-2.93-7.14-10.6-14.79-20.66-14.3-7.59.37-13.12,4.11-18.24,8.88-2.56,2.38-3.79,4.28-5.66-.78-1.8-4.86-6.05-7.5-11.54-8-6-.57-10.21,1.72-13.1,6.88a47.2,47.2,0,0,0-5.39,13.75c-.44,2.24-3.38,5.88.19,6.8,3.28.85,2.82-3.53,3.61-5.85,1.91-5.58,2.91-11.59,7.42-16,1.78-1.72,3.82-2.69,6.3-1.88,2.29.75,3.07,2.59,3.67,4.84,1,3.58.16,7-.65,10.32-6.42,26.12-13.14,52.16-19.66,78.26-1,4.2-3.32,6.17-7.69,6.13-2.05,0-5.38-1-5.23,2.71.18,4.55,3.55,1.85,5.63,2,.83.05,1.67,0,2.5,0,8.13.11,16.27-.65,24.38.63a3.22,3.22,0,0,0,3.87-3c.28-2.43-1.79-2.3-3.44-2.37s-3.32-.15-5-.11c-4,.09-4.89-1.8-4-5.41,2.31-8.93,4.47-17.9,6.66-26.87.27-1.09-.14-2.6,1.22-3,1.52-.48,1.76,1.22,2.4,2,5.78,7.5,11.36,9.13,21.68,5.8,18.51-6,32.86-27.54,32.81-48.56A28,28,0,0,0,938.85,97.28ZM929,103.39c-2.84,16.82-4.2,34.25-17.16,47.37-3.91,4-8.43,7-14.53,5.49-7.07-1.71-9.2-7.44-10.82-13.46-.95-3.52,1-6.74,1.77-10,2-9,4.43-17.87,6.64-26.81,1.87-7.55,12.93-17.86,20.55-19.1,7.36-1.2,12.3,3,13.51,11.58A36,36,0,0,1,929,103.39Z" transform="translate(-31.05 -30.03)"/><path class="a" d="M1264.83,374.13c-1.79-12.81-11.77-21.66-23.58-20.91-7.23.46-12.79,4.4-17.7,9.14-2.62,2.53-3.4,3.39-5-.88-2.09-5.68-7.1-7.94-13-8.29-5.41-.32-9.16,2-11.75,6.7a57.2,57.2,0,0,0-6,16.14c-.36,1.69-1.82,3.9.54,4.63,2.73.85,3.1-1.91,3.46-3.78A54.63,54.63,0,0,1,1196,363.7c2.66-5.65,6.9-8.5,10.18-6.67,4.56,2.55,4.35,7.09,3.28,11.44q-9.76,39.63-19.7,79.21c-2.12,8.38-2.31,8.37-10.87,8.85-1.85.1-2.76.76-2.74,2.66s1.27,2.66,2.92,2.59c2.65-.12,5.29-.62,7.94-.67,7-.13,14-.39,20.93.64,2.47.36,4.69-.48,4.77-3.06.1-3.33-2.49-1.89-4.36-1.89a28.16,28.16,0,0,1-6.37-.88,2.59,2.59,0,0,1-2-3.45c2.65-10.69,5.32-21.38,8.19-32.88,7.45,12.31,17.85,12.75,28.6,7.5C1255.31,418,1267.7,394.66,1264.83,374.13Zm-11.74-.84c-2.65,16.44-4.06,33.39-16.12,46.5-4.18,4.55-9.14,8.59-16,6.54-7.42-2.21-11.87-10.84-9.93-18.75,2.59-10.57,4.87-21.24,8.12-31.6,3.06-9.79,10.47-16,20.11-18.95,7.12-2.15,12.78,3.27,13.82,12.26A35,35,0,0,1,1253.09,373.29Z" transform="translate(-31.05 -30.03)"/><path class="a" d="M1711.6,371.91c-2.45-10.21-9.64-17.39-19-18.55-9.07-1.13-16.06,3.19-22,9.39-2.7,2.82-3.49,2.13-4.79-1-2.31-5.61-7-8.05-12.88-8.52-5.67-.44-9.34,2.2-12.06,7a53,53,0,0,0-5.88,15.68c-.35,1.72-2.51,4.11.69,4.86,2.75.64,2.73-2,3.2-4,1.31-5.47,2.76-10.91,5.84-15.75,2-3.07,4.66-5,8.3-4,3.42.94,4,4.07,4,7.22a27.55,27.55,0,0,1-.54,5.93q-9.81,39.33-19.78,78.63c-1.88,7.37-2.36,7.62-10.12,7.74-2,0-3.31.79-3.37,2.76-.07,2.25,1.7,2.64,3.46,2.55,2.65-.14,5.28-.61,7.93-.67,6.81-.13,13.63-.33,20.42.62,2.28.32,4.65,0,4.74-2.93.1-3.38-2.27-2.21-4.22-2a22.87,22.87,0,0,1-4.4-.48c-3.6-.38-4.62-1.68-3.5-5.62,2.83-10,5-20.11,7.58-30.84,8.23,10.74,12.35,12.7,25.07,8.81C1700.94,422.38,1716.66,392.93,1711.6,371.91Zm-26.43,47a26.11,26.11,0,0,1-9.39,7,10.5,10.5,0,0,1-12.41-2.19c-4.17-4.11-6.64-9.26-5.22-15.3,2.48-10.6,5-21.21,8-31.67,2.86-10,10.13-16.15,19.6-19.57,5.8-2.1,11.31,1.15,13.4,7,1.14,3.2,1.09,6.52,1.39,10.88C1697.82,389.82,1695.93,405.81,1685.17,418.86Z" transform="translate(-31.05 -30.03)"/><path class="a" d="M863.19,298.26a41.68,41.68,0,0,0,8.46-7.28c5.75-6.92,6.91-15.2,2.86-21.53-3.86-6-14.07-9.66-21.71-7.41-15.09,4.45-22.77,16-26.58,30.07-6.49,24-12.19,48.26-18.21,72.41-.38,1.54-2.36,3.62.76,4.3,2.79.6,2.58-2.17,3-3.66,2.36-9.23,4.52-18.51,7-28.67,11.36,16.89,34.16,10.3,45.79-1,5.28-5.11,8.41-11.66,8.26-19.1S869.67,302.75,863.19,298.26Zm0,22.46c-2.42,14.33-16,24.73-29.56,22.39-8.34-1.44-13.76-8.27-11.87-16.44,3.6-15.52,5.39-31.67,13.32-45.85,3.88-7,9.19-12.88,17.47-15.22,11.06-3.13,18.76,3.67,16.36,14.8a26.09,26.09,0,0,1-5.15,11.17c-2.54,3.11-5.14,4.8-9.64,3.3a20.9,20.9,0,0,0-13.66.2c-1.77.63-3.6,1.71-3.17,3.87s2.21,3.11,4.48,3c1.83-.06,3.66,0,6.37,0,2.07-.2,5.11.59,7.91-1,1.91-1.08,3,.13,4.15,1.47C865,307.93,864.28,314.2,863.18,320.72Zm-10.73-21.85a33.3,33.3,0,0,1-11-.19C845.36,296.14,848.45,296.44,852.45,298.87Z" transform="translate(-31.05 -30.03)"/></svg>